#!OML:ASF F:\twosubjects\two\Thursday\Session 1\justin.ASF
:FULLY-SPECIFIED
:DEGREES
344
root 8.62327 18.034 -1.62122 -173.581 23.0504 183.003
lowerback 4.40206 3.56564 -3.87311
upperback -0.383601 4.70222 3.17492
thorax -3.44551 2.47104 5.10222
lowerneck -20.1178 -3.90194 -11.0369
upperneck 24.4764 0.0161533 -3.28183
head 11.4557 -1.14114 0.674383
rclavicle -4.90998e-014 -1.07344e-014
rhumerus 14.0586 9.50747 -87.5277
rradius 101.156
rwrist -14.1363
rhand -54.1257 44.046
rfingers 7.12502
rthumb -26.5436 15.8857
lclavicle -4.90998e-014 -1.07344e-014
lhumerus 37.7844 -9.02 81.757
lradius 40.4637
lwrist 2.90069
lhand -33.5799 47.4332
lfingers 7.12502
lthumb -6.77405 437.305
rfemur -15.2647 -4.63289 9.81879
rtibia 35.7917
rfoot -15.8441 -9.40448
rtoes -13.3889
lfemur -12.4055 1.79708 -18.0427
ltibia 25.3524
lfoot -15.0317 -1.93752
ltoes -16.3242
345
root 8.58647 18.0402 -1.64403 -173.715 22.9789 182.615
lowerback 4.2123 3.48157 -4.35903
upperback -0.334768 4.56793 3.19872
thorax -3.31301 2.4084 5.42681
lowerneck -20.0291 -4.00274 -11.2261
upperneck 24.2565 -0.0325131 -3.46885
head 11.3639 -1.1919 0.629399
rclavicle -2.5345e-015 1.31198e-014
rhumerus 14.0424 9.60347 -87.3278
rradius 101.458
rwrist -13.5156
rhand -53.9957 45.8401
rfingers 7.12502
rthumb -26.4192 17.6611
lclavicle -2.5345e-015 1.31198e-014
lhumerus 37.7728 -8.96862 81.8331
lradius 40.4782
lwrist 2.42081
lhand -33.151 48.1712
lfingers 7.12502
lthumb -6.36003 438.056
rfemur -15.309 -4.82958 9.35425
rtibia 35.8647
rfoot -15.567 -9.57277
rtoes -12.4496
lfemur -12.2938 1.46473 -18.6021
ltibia 25.1441
lfoot -15.2043 -1.71906
ltoes -17.0972
346
root 8.56481 18.0452 -1.65566 -173.76 23.0122 182.436
lowerback 3.99747 3.30081 -4.92164
upperback -0.274097 4.31182 3.343
thorax -3.1503 2.28754 5.93442
lowerneck -20.0178 -3.91392 -11.4425
upperneck 24.1736 0.176695 -3.511
head 11.3273 -1.1154 0.68225
rclavicle -2.66868e-014 4.01545e-014
rhumerus 13.9558 9.99653 -87.2545
rradius 101.897
rwrist -12.935
rhand -53.8419 47.7072
rfingers 7.12502
rthumb -26.2719 19.5062
lclavicle -2.66868e-014 4.01545e-014
lhumerus 37.7054 -8.52317 81.8451
lradius 40.341
lwrist 1.65744
lhand -33.0384 48.4701
lfingers 7.12502
lthumb -6.25126 438.358
rfemur -15.5148 -5.16208 9.30035
rtibia 36.0057
rfoot -14.9143 -10.1771
rtoes -16.4429
lfemur -12.1887 1.63609 -18.8841
ltibia 24.9166
lfoot -15.1639 -1.767
ltoes -17.4303
347
root 8.54566 18.053 -1.67289 -173.609 23.2693 182.58
lowerback 3.72817 3.44744 -5.08169
upperback -0.236344 4.50805 3.31297
thorax -2.99778 2.38199 5.99347
lowerneck -20.1776 -4.02596 -11.2035
upperneck 24.3698 0.00067481 -3.59009
head 11.4368 -1.19579 0.583952
rclavicle -4.67144e-015 1.59028e-015
rhumerus 13.9188 9.55523 -87.1083
rradius 102.336
rwrist -12.4392
rhand -53.928 48.9983
rfingers 7.12502
rthumb -26.3544 20.8095
lclavicle -4.67144e-015 1.59028e-015
lhumerus 37.9825 -9.14573 81.5517
lradius 40.1263
lwrist 1.52456
lhand -33.2273 47.9684
lfingers 7.12502
lthumb -6.4336 437.851
rfemur -15.7909 -5.03993 9.51773
rtibia 36.1745
rfoot -14.746 -10.5719
rtoes -17.5324
lfemur -12.0603 1.93571 -18.8428
ltibia 24.711
lfoot -15.1425 -1.82763
ltoes -16.1178
348
root 8.52278 18.0609 -1.68558 -173.445 23.6313 182.752
lowerback 3.60016 3.66386 -5.23295
upperback -0.297822 4.79577 3.31888
thorax -3.04483 2.53139 6.06674
lowerneck -20.1044 -4.22366 -11.1704
upperneck 24.5321 -0.286248 -3.57133
head 11.4955 -1.32492 0.539783
rclavicle 1.05853e-014 -2.26615e-014
rhumerus 13.8438 8.98211 -86.8034
rradius 102.486
rwrist -11.6955
rhand -54.242 48.2643
rfingers 7.12502
rthumb -26.6549 20.1209
lclavicle 1.05853e-014 -2.26615e-014
lhumerus 38.1288 -9.78883 81.3983
lradius 40.0055
lwrist 1.62894
lhand -33.3338 47.7318
lfingers 7.12502
lthumb -6.53644 437.611
rfemur -16.0785 -4.68619 9.71979
rtibia 36.2856
rfoot -14.7565 -10.8708
rtoes -15.9172
lfemur -12.0068 2.43291 -18.7898
ltibia 24.5802
lfoot -15.1334 -2.11928
ltoes -14.1864
349
root 8.48904 18.0624 -1.70156 -173.449 23.5507 182.741
lowerback 3.5695 3.52453 -5.40441
upperback -0.358956 4.60857 3.41738
thorax -3.08617 2.44606 6.28385
lowerneck -19.933 -4.25302 -11.2417
upperneck 24.542 -0.265644 -3.72177
head 11.4702 -1.33277 0.50188
rclavicle 5.91384e-015 -6.36111e-015
rhumerus 13.8287 8.84523 -86.7228
rradius 102.216
rwrist -10.6672
rhand -54.3096 47.1242
rfingers 7.12502
rthumb -26.7196 18.9907
lclavicle 5.91384e-015 -6.36111e-015
lhumerus 37.9135 -9.48157 81.6744
lradius 39.9096
lwrist 1.16116
lhand -33.3214 47.7631
lfingers 7.12502
lthumb -6.52449 437.643
rfemur -16.1947 -4.79632 9.75956
rtibia 36.3465
rfoot -14.5954 -11.2931
rtoes -16.1793
lfemur -11.986 2.80786 -18.9327
ltibia 24.4903
lfoot -15.0953 -2.52812
ltoes -13.1525
350
root 8.44447 18.0593 -1.74068 -173.286 23.2091 182.677
lowerback 3.05791 3.20598 -5.33887
upperback -0.393265 4.21122 3.4795
thorax -2.77329 2.2396 6.37287
lowerneck -20.0094 -4.23663 -11.0133
upperneck 24.7553 -0.083917 -4.27981
head 11.5665 -1.29697 0.287018
rclavicle 5.81445e-015 -2.14687e-014
rhumerus 13.866 8.93367 -86.6609
rradius 101.719
rwrist -10.2256
rhand -54.0198 47.702
rfingers 7.12502
rthumb -26.4423 19.5265
lclavicle 5.81445e-015 -2.14687e-014
lhumerus 37.7338 -8.75498 82.1401
lradius 39.6151
lwrist 0.85697
lhand -33.5388 47.0444
lfingers 7.12502
lthumb -6.73438 436.917
rfemur -16.3133 -5.33265 9.65038
rtibia 36.3587
rfoot -14.6077 -11.4174
rtoes -16.1415
lfemur -12.1808 2.6841 -19.1834
ltibia 24.4376
lfoot -15.0655 -2.66807
ltoes -12.6318
351
root 8.41658 18.0584 -1.73667 -173.48 22.6767 182.559
lowerback 3.31884 2.74614 -5.76825
upperback -0.336254 3.58642 3.81169
thorax -2.81504 1.94161 7.00755
lowerneck -20.6261 -4.16575 -11.3485
upperneck 25.2279 0.417401 -4.5944
head 11.8713 -1.15899 0.29379
rclavicle 1.92821e-014 -8.74653e-015
rhumerus 14.1435 9.67416 -86.3202
rradius 101.039
rwrist -10.3336
rhand -53.6387 48.2825
rfingers 7.12502
rthumb -26.0775 20.0527
lclavicle 1.92821e-014 -8.74653e-015
lhumerus 37.6747 -7.48814 82.6405
lradius 39.282
lwrist 0.866041
lhand -33.7206 45.8214
lfingers 7.12502
lthumb -6.90988 435.689
rfemur -16.0202 -5.87075 9.62481
rtibia 36.3061
rfoot -14.7226 -11.7338
rtoes -14.8276
lfemur -12.1287 2.79157 -19.2801
ltibia 24.4304
lfoot -14.8733 -3.66455
ltoes -11.3024
352
root 8.38531 18.0613 -1.75247 -173.486 22.9886 182.761
lowerback 3.14177 2.89833 -5.69806
upperback -0.135798 3.80314 3.8297
thorax -2.539 2.03466 6.98342
lowerneck -21.1606 -4.33661 -11.396
upperneck 25.7013 0.281667 -4.46106
head 12.1671 -1.24053 0.316622
rclavicle 3.53837e-014 3.65764e-014
rhumerus 14.6596 9.16097 -86.066
rradius 100.135
rwrist -10.2279
rhand -53.4021 47.9844
rfingers 7.12502
rthumb -25.8509 19.7213
lclavicle 3.53837e-014 3.65764e-014
lhumerus 38.0841 -7.8173 82.6549
lradius 39.168
lwrist 0.897397
lhand -33.4466 45.7611
lfingers 7.12502
lthumb -6.64537 435.637
rfemur -16.0848 -5.81586 9.88515
rtibia 36.2573
rfoot -14.4702 -12.2454
rtoes -14.9951
lfemur -11.9656 2.87381 -19.1861
ltibia 24.417
lfoot -14.7694 -3.52622
ltoes -10.4124
